<svg xmlns="http://www.w3.org/2000/svg" viewBox="-1 -1 20 20"><g xmlns="http://www.w3.org/2000/svg" fill="none" fill-rule="evenodd"><path d="M-1-1h20v20H-1z"/><path fill="url(#a)" fill-rule="nonzero" d="M16.667 5H14.85c.092-.258.15-.542.15-.833a2.497 2.497 0 0 0-4.583-1.375L10 3.35l-.417-.567A2.51 2.51 0 0 0 7.5 1.667a2.497 2.497 0 0 0-2.5 2.5c0 .291.058.575.15.833H3.333c-.925 0-1.658.742-1.658 1.667l-.008 9.166A1.66 1.66 0 0 0 3.333 17.5h13.334a1.66 1.66 0 0 0 1.666-1.667V6.667A1.66 1.66 0 0 0 16.667 5m0 6.667H3.333v-5h4.234L5.833 9.025l1.35.975 1.984-2.7L10 6.167l.833 1.133 1.984 2.7 1.35-.975-1.734-2.358h4.234z" transform="translate(-1 -1)"/></g></svg>