<svg xmlns="http://www.w3.org/2000/svg" viewBox="-2 -3 20 20"><g xmlns="http://www.w3.org/2000/svg" fill="none" fill-rule="evenodd"><path d="M-2-3h20v20H-2z"/><path fill="url(#a)" fill-rule="nonzero" d="M9.5 3C5.36 3 2 6.36 2 10.5S5.36 18 9.5 18s7.5-3.36 7.5-7.5S13.64 3 9.5 3m.75 12.75h-1.5v-1.5h1.5zm1.553-5.813-.676.69c-.54.548-.877.998-.877 2.123h-1.5v-.375c0-.825.338-1.575.877-2.123l.93-.945c.278-.27.443-.645.443-1.057 0-.825-.675-1.5-1.5-1.5S8 7.425 8 8.25H6.5a3 3 0 1 1 6 0c0 .66-.27 1.26-.697 1.688z" transform="translate(-2 -3)"/></g></svg>