<svg xmlns="http://www.w3.org/2000/svg" viewBox="0 0.066 15.918 15.871"><g fill="#2874F1" fill-rule="evenodd"><path d="m11.618 9.897 4.225 4.212c.092.092.101.232.02.313l-1.465 1.46c-.081.081-.221.072-.314-.02l-4.216-4.203" class="EwE-Fa"/><path d="M6.486 10.901a4.374 4.374 0 0 1-4.381-4.368 4.375 4.375 0 0 1 4.381-4.369 4.375 4.375 0 0 1 4.381 4.369 4.374 4.374 0 0 1-4.381 4.368m0-10.835C2.904.066 0 2.961 0 6.533S2.904 13 6.486 13s6.486-2.895 6.486-6.467S10.068.066 6.486.066" class="EwE-Fa"/></g></svg>