<svg xmlns="http://www.w3.org/2000/svg" width="62" height="18"><path fill="#fff" d="M0 0h62v18H0z"/><path fill="#9E9E9E" d="M5.83 6.455a1.34 1.34 0 0 0-.623-1.006Q4.662 5.09 3.87 5.09q-.579 0-1.014.187a1.6 1.6 0 0 0-.673.516q-.24.328-.239.746 0 .35.166.6.171.248.435.414.264.162.554.268.289.103.533.167l.886.238q.34.09.759.247.421.159.805.43.388.27.64.691.25.422.25 1.036 0 .707-.37 1.278-.366.57-1.074.908-.703.336-1.709.336-.937 0-1.623-.302a2.6 2.6 0 0 1-1.074-.844 2.4 2.4 0 0 1-.44-1.257h1.092q.042.495.332.818.294.32.742.478.451.153.971.153a2.9 2.9 0 0 0 1.087-.196q.48-.2.763-.554.28-.358.28-.835 0-.435-.242-.708a1.8 1.8 0 0 0-.64-.443 7 7 0 0 0-.856-.298l-1.074-.307q-1.022-.294-1.619-.84Q.92 7.473.92 6.591q0-.733.397-1.279.4-.549 1.074-.852a3.6 3.6 0 0 1 1.512-.307q.844 0 1.5.303.657.299 1.04.818.388.52.41 1.18zm2.743 9v-9h.971v1.04h.12a9 9 0 0 1 .307-.435q.2-.269.57-.478.376-.213 1.015-.213.826 0 1.457.414.63.413.985 1.172.353.758.353 1.79 0 1.039-.354 1.802-.353.759-.98 1.176-.626.413-1.444.413-.63 0-1.01-.208a1.9 1.9 0 0 1-.584-.482 7 7 0 0 1-.315-.452h-.086v3.46zm.988-5.728q0 .741.218 1.309.217.562.635.882.417.315 1.022.315.63 0 1.053-.332.426-.337.64-.904.216-.57.216-1.27 0-.69-.213-1.244a1.9 1.9 0 0 0-.634-.882q-.422-.328-1.062-.328-.613 0-1.03.31a1.87 1.87 0 0 0-.632.862q-.213.55-.213 1.282m8.983 3.41q-.886 0-1.555-.423a2.87 2.87 0 0 1-1.04-1.18q-.37-.759-.37-1.773 0-1.022.37-1.785a2.86 2.86 0 0 1 1.04-1.185q.669-.422 1.555-.422t1.552.422q.668.422 1.04 1.185.375.763.374 1.785 0 1.015-.375 1.773-.37.76-1.04 1.18-.665.423-1.55.422m0-.904q.675 0 1.108-.345.435-.345.644-.908.209-.562.209-1.219 0-.656-.21-1.223a2.06 2.06 0 0 0-.643-.916q-.435-.35-1.108-.35t-1.108.35-.643.916a3.5 3.5 0 0 0-.209 1.223q0 .657.209 1.22.21.561.643.907.435.345 1.108.345m5.507-3.17V13h-1.005V6.455h.971v1.022h.085q.23-.499.7-.8.468-.308 1.21-.308.663 0 1.163.273.498.269.775.818.277.546.277 1.38V13h-1.005V8.91q0-.772-.401-1.203-.4-.434-1.1-.434-.48 0-.86.209-.375.208-.593.609-.216.4-.217.972m10.65-1.143-.903.256a1.7 1.7 0 0 0-.252-.439 1.2 1.2 0 0 0-.443-.358q-.28-.14-.72-.14-.6 0-1.001.277-.397.272-.397.694 0 .375.273.593.273.216.852.362l.972.238q.878.213 1.308.652.43.435.43 1.121 0 .562-.323 1.006a2.15 2.15 0 0 1-.895.699q-.576.255-1.338.255-1.001 0-1.658-.434-.656-.435-.83-1.27l.954-.239q.135.53.515.793.384.264 1.002.264.703 0 1.116-.298.418-.303.418-.725a.76.76 0 0 0-.239-.57q-.238-.236-.733-.35l-1.09-.256q-.9-.213-1.322-.66-.417-.452-.417-1.13 0-.554.31-.98.317-.426.857-.669a3 3 0 0 1 1.236-.243q.972 0 1.526.426.558.428.792 1.125m4.293 5.216q-.887 0-1.556-.421a2.87 2.87 0 0 1-1.04-1.18q-.37-.76-.37-1.774 0-1.022.37-1.785a2.86 2.86 0 0 1 1.04-1.185q.67-.422 1.556-.422t1.55.422a2.8 2.8 0 0 1 1.04 1.185q.375.763.375 1.785 0 1.015-.375 1.773-.37.76-1.04 1.18-.664.423-1.55.422m0-.903q.673 0 1.108-.345t.643-.908q.21-.562.209-1.219 0-.656-.209-1.223a2.06 2.06 0 0 0-.643-.916q-.435-.35-1.108-.35-.675 0-1.108.35-.435.35-.644.916a3.5 3.5 0 0 0-.209 1.223q0 .657.21 1.22.207.561.643.907.435.345 1.108.345m4.5.767V6.455h.972v.988h.068q.18-.486.648-.788a1.9 1.9 0 0 1 1.057-.303q.11 0 .277.005.166.004.251.012v1.023a3 3 0 0 0-.234-.038q-.18-.03-.38-.03a1.8 1.8 0 0 0-.852.2 1.47 1.47 0 0 0-.801 1.334V13zm7.01.136q-.945 0-1.631-.417a2.8 2.8 0 0 1-1.053-1.176q-.366-.759-.367-1.765 0-1.005.367-1.772a2.9 2.9 0 0 1 1.031-1.202q.665-.435 1.551-.435.512 0 1.01.17.499.172.908.555.41.38.652 1.005.243.627.243 1.543v.426H48.17v-.87h4.023q0-.553-.221-.988a1.67 1.67 0 0 0-.623-.686 1.74 1.74 0 0 0-.946-.251q-.6 0-1.04.298-.434.294-.669.767a2.25 2.25 0 0 0-.234 1.014v.58q0 .741.256 1.257.26.51.72.78a2.1 2.1 0 0 0 1.07.264q.396 0 .715-.11.325-.116.559-.342.234-.23.362-.57l.972.272q-.154.495-.516.87-.363.37-.895.579a3.3 3.3 0 0 1-1.197.204m6.712 0a2.56 2.56 0 0 1-1.444-.413q-.627-.417-.98-1.176-.354-.764-.354-1.803 0-1.03.353-1.79.355-.758.985-1.171t1.457-.414q.64 0 1.01.213.375.21.571.478.2.263.311.434h.086V4.273h1.005V13h-.971v-1.006h-.12q-.111.18-.315.452-.204.269-.584.482-.38.208-1.01.208m.137-.903q.605 0 1.022-.315.418-.32.635-.882.218-.567.218-1.309 0-.732-.213-1.282a1.87 1.87 0 0 0-.631-.861q-.418-.312-1.031-.311-.64 0-1.066.328-.422.324-.635.882-.209.554-.209 1.244 0 .7.214 1.27.217.567.639.904.426.332 1.057.332"/></svg>