<svg xmlns="http://www.w3.org/2000/svg" width="377" height="18" fill="none" viewBox="0 0 377 18"><path fill="#fff" stroke="#E0E0E0" stroke-width=".67" d="M375 .67h-34a1 1 0 0 0-1 1v14.66a1 1 0 0 0 1 1h34a1 1 0 0 0 1-1V1.67a1 1 0 0 0-1-1Z"/><path fill="#4E4E4E" d="M355.25 6.81h-1.32v1h1.54v.44h-2.09V5h2.07v.45h-1.52v.89h1.32zm2.46.68h-1.24l-.26.74h-.57L356.85 5h.49l1.21 3.2H358zM356.63 7h.93l-.47-1.33zm4 .37a.4.4 0 0 0-.15-.33 2 2 0 0 0-.53-.23 2.3 2.3 0 0 1-.62-.26.813.813 0 0 1-.352-1.067.8.8 0 0 1 .232-.283A1.25 1.25 0 0 1 360 5a1.4 1.4 0 0 1 .59.12c.171.078.316.203.42.36.1.147.152.322.15.5h-.56a.47.47 0 0 0-.16-.39.6.6 0 0 0-.45-.15.66.66 0 0 0-.42.12.4.4 0 0 0-.15.33.38.38 0 0 0 .16.29q.253.155.54.23.317.085.6.25c.117.091.213.207.28.34a.83.83 0 0 1 .11.43.76.76 0 0 1-.31.63 1.3 1.3 0 0 1-.83.24 1.5 1.5 0 0 1-.64-.13 1.1 1.1 0 0 1-.45-.36.85.85 0 0 1-.16-.52h.55a.52.52 0 0 0 .18.42.8.8 0 0 0 .52.15.7.7 0 0 0 .44-.12.4.4 0 0 0 .18-.33zm2.09-.86.7-1.51h.58l-1.07 2v1.23h-.56V7.06l-1.07-2h.61zm4.69.26h-1.32v1h1.54v.44h-2.13V5h2.08v.45h-1.53v.89h1.32zM368.76 5l.93 2.46.92-2.46h.72v3.2h-.56V7.18l.06-1.41-.95 2.46h-.4l-.94-2.46.06 1.41v1.05h-.6V5zm3.81 3.2H372V5h.55zm-16.64 3.49a1.9 1.9 0 0 1-.16.82 1.2 1.2 0 0 1-.47.55 1.3 1.3 0 0 1-.69.19 1.4 1.4 0 0 1-.7-.19 1.3 1.3 0 0 1-.47-.54 1.9 1.9 0 0 1-.16-.81v-.18a2 2 0 0 1 .16-.83 1.23 1.23 0 0 1 1.16-.74c.247-.006.49.06.7.19.205.128.366.317.46.54a1.9 1.9 0 0 1 .17.82zm-.55-.17a1.33 1.33 0 0 0-.21-.81.65.65 0 0 0-.57-.29.66.66 0 0 0-.56.29c-.15.235-.224.511-.21.79v.19c-.018.285.056.57.21.81a.71.71 0 0 0 1.14 0c.147-.247.217-.533.2-.82zm1.66.5v1.18h-.56V10h1.23c.308-.014.61.086.85.28a1 1 0 0 1 .32.74.92.92 0 0 1-.31.73 1.3 1.3 0 0 1-.87.27zm0-.45h.67a.65.65 0 0 0 .45-.14.5.5 0 0 0 .16-.4.55.55 0 0 0-.16-.42.67.67 0 0 0-.44-.16H357zm4.63-1.12h-1v2.75h-.55v-2.72h-1V10h2.53zm1 2.75h-.55V10h.55zm3.24-1.51a1.9 1.9 0 0 1-.16.82c-.1.225-.264.416-.47.55a1.3 1.3 0 0 1-.69.19 1.4 1.4 0 0 1-.7-.19 1.3 1.3 0 0 1-.47-.54 1.9 1.9 0 0 1-.16-.81v-.18a2 2 0 0 1 .16-.83 1.23 1.23 0 0 1 1.16-.74c.246-.005.489.061.7.19.205.128.366.317.46.54a1.9 1.9 0 0 1 .17.82zm-.56-.17a1.33 1.33 0 0 0-.2-.81.65.65 0 0 0-.57-.29.66.66 0 0 0-.56.29c-.15.235-.224.511-.21.79v.19c-.018.285.056.57.21.81a.65.65 0 0 0 .57.29.64.64 0 0 0 .56-.28 1.36 1.36 0 0 0 .2-.82zm3.65 1.71h-.55L367 11v2.27h-.56V10h.56l1.43 2.28V10h.57zm2.33-.82a.4.4 0 0 0-.15-.33 2 2 0 0 0-.53-.23 2.3 2.3 0 0 1-.62-.26.81.81 0 0 1-.352-1.067.8.8 0 0 1 .232-.283 1.25 1.25 0 0 1 .82-.25 1.4 1.4 0 0 1 .59.12c.17.075.313.2.41.36a.8.8 0 0 1 .15.5h-.55a.47.47 0 0 0-.16-.39.6.6 0 0 0-.45-.15.66.66 0 0 0-.42.12.4.4 0 0 0-.107.495q.043.077.117.125.253.155.54.23.317.085.6.25c.134.082.247.195.33.33a.83.83 0 0 1 .11.43.78.78 0 0 1-.31.63 1.3 1.3 0 0 1-.83.24 1.5 1.5 0 0 1-.64-.13 1 1 0 0 1-.45-.36.85.85 0 0 1-.16-.52h.55a.52.52 0 0 0 .18.42c.15.11.334.163.52.15a.65.65 0 0 0 .43-.12.37.37 0 0 0 .16-.31z"/><path fill="#212121" fill-rule="evenodd" d="M349.45 5.84V5h-.78v.84h-3.14V5h-.79v.84h-.39a.81.81 0 0 0-.73.528.8.8 0 0 0-.05.312v5.48a.82.82 0 0 0 .79.84h5.49a.82.82 0 0 0 .79-.84V6.68a.82.82 0 0 0-.79-.84zm-5.1 6.32V7.53h5.49v4.63z" clip-rule="evenodd"/><path fill="#212121" d="M346.22 9.9a1.002 1.002 0 0 0 .981-1.195 1.002 1.002 0 0 0-1.363-.729 1 1 0 0 0 .382 1.924m1.57 1.89a1.002 1.002 0 0 0 .981-1.195 1.003 1.003 0 0 0-1.364-.729 1 1 0 0 0-.617.924 1 1 0 0 0 1 1"/><path stroke="#212121" stroke-linecap="square" stroke-width=".63" d="m347.76 8.58-1.65 2.56"/><path fill="#fff" stroke="#E0E0E0" stroke-width=".67" d="M333.67.67h-34a1 1 0 0 0-1 1v14.66a1 1 0 0 0 1 1h34a1 1 0 0 0 1-1V1.67a1 1 0 0 0-1-1Z"/><path fill="#4E4E4E" d="M312.47 7.19a1.2 1.2 0 0 1-.38.8 1.3 1.3 0 0 1-.88.29 1.24 1.24 0 0 1-.67-.18 1.27 1.27 0 0 1-.45-.52 1.9 1.9 0 0 1-.17-.78v-.29a2 2 0 0 1 .16-.8 1.25 1.25 0 0 1 1.16-.71c.31-.014.613.09.85.29.226.21.362.5.38.81h-.56a.77.77 0 0 0-.2-.5.66.66 0 0 0-.47-.15.65.65 0 0 0-.56.27 1.34 1.34 0 0 0-.2.77v.29c-.013.276.053.55.19.79a.62.62 0 0 0 .54.27.68.68 0 0 0 .49-.15.72.72 0 0 0 .21-.49zm2.29.3h-1.24l-.26.74h-.58L313.89 5h.5l1.21 3.2h-.6zM313.67 7h.93l-.46-1.33zm4 .37a.42.42 0 0 0-.15-.33 2 2 0 0 0-.54-.23 2 2 0 0 1-.61-.26.82.82 0 0 1-.362-1.068.8.8 0 0 1 .232-.282A1.27 1.27 0 0 1 317 5a1.4 1.4 0 0 1 .6.12 1 1 0 0 1 .41.35.9.9 0 0 1 .15.51h-.55a.5.5 0 0 0-.16-.39.64.64 0 0 0-.45-.15.66.66 0 0 0-.42.12.42.42 0 0 0-.16.33.36.36 0 0 0 .17.29q.249.154.53.23.317.084.6.25a.9.9 0 0 1 .34.33.8.8 0 0 1 .1.42.77.77 0 0 1-.31.64 1.3 1.3 0 0 1-.83.24 1.7 1.7 0 0 1-.64-.13 1.16 1.16 0 0 1-.45-.36.85.85 0 0 1-.16-.52h.56a.52.52 0 0 0 .18.42.78.78 0 0 0 .51.15.68.68 0 0 0 .44-.12.37.37 0 0 0 .18-.32zm3.58.82h-.55V6.81h-1.44v1.42h-.55V5h.55v1.37h1.44V5h.55zm4.33-1.51a1.9 1.9 0 0 1-.16.82 1.2 1.2 0 0 1-.47.55 1.35 1.35 0 0 1-1.38 0 1.24 1.24 0 0 1-.47-.54 1.8 1.8 0 0 1-.17-.82v-.14a1.9 1.9 0 0 1 .16-.82 1.27 1.27 0 0 1 .98-.743 1.276 1.276 0 0 1 1.35.733c.108.26.163.538.16.82zm-.58-.13a1.4 1.4 0 0 0-.21-.82.66.66 0 0 0-.56-.28.68.68 0 0 0-.57.28 1.4 1.4 0 0 0-.21.8v.19c-.018.285.056.569.21.81a.68.68 0 0 0 .57.29.65.65 0 0 0 .57-.28c.147-.247.217-.533.2-.82zm3.64 1.68h-.55L326.66 6v2.23h-.55V5h.55l1.43 2.28V5h.55zm-18.61 5V10h.97c.262-.001.52.064.75.19.218.128.395.315.51.54.123.245.185.516.18.79v.16c.007.277-.055.552-.18.8a1.3 1.3 0 0 1-.52.54 1.6 1.6 0 0 1-.76.18zm.55-2.75v2.31h.42a.81.81 0 0 0 .66-.27c.172-.226.258-.507.24-.79v-.18a1.2 1.2 0 0 0-.22-.79.8.8 0 0 0-.66-.28zm4.26 1.32h-1.32v1h1.54v.44H313V10h2v.45h-1.52v.89h1.32zm1.23 1h1.45v.44h-2V10h.56zm2.46.44H318V10h.55zm1.81-.69.81-2.51h.62l-1.16 3.2h-.53L318.93 10h.61zm3.66-.75h-1.32v1h1.54v.44h-2.09V10h2.07v.45h-1.52v.89H324zm1.85.2h-.62v1.23h-.56V10h1.13a1.32 1.32 0 0 1 .85.25.9.9 0 0 1 .3.72c.002.19-.05.378-.15.54a1 1 0 0 1-.43.33l.72 1.33h-.6zm-.62-.45h.57a.6.6 0 0 0 .44-.14.47.47 0 0 0 .16-.39.5.5 0 0 0-.15-.39.58.58 0 0 0-.43-.15h-.59zm3.19 0 .74-1.52h.61l-1.07 2v1.17h-.56v-1.14l-1.07-2h.61z"/><path fill="#212121" d="m303.45 8.13-.18.5h2.59c-.055.3-.223.569-.47.75a2.5 2.5 0 0 1-1.5.38h-.54v.57a1.27 1.27 0 0 1 .69.2q.31.232.53.55l1.79 2.42h1.12l-2.09-2.69a2.8 2.8 0 0 0-.53-.59 2.5 2.5 0 0 0 1.31-.6c.283-.261.461-.617.5-1h1.15l.16-.5h-1.3a1.77 1.77 0 0 0-.68-1.26h1.79l.18-.5h-4.56l-.16.5h.91a1.78 1.78 0 0 1 1.23.39c.248.229.402.543.43.88z"/><path fill="#fff" stroke="#E0E0E0" stroke-width=".67" d="M292.33.67h-34a1 1 0 0 0-1 1v14.66a1 1 0 0 0 1 1h34a1 1 0 0 0 1-1V1.67a1 1 0 0 0-1-1Z"/><path fill="#4E4E4E" d="M272.86 8h-.55l-1.43-2.27V8h-.55V4.8h.55l1.43 2.28V4.8h.55zm2.53-1.43h-1.31v1h1.53V8h-2.09V4.8h2.08v.45h-1.52v.88h1.31zm3-1.32h-1V8h-.55V5.25h-1V4.8h2.54zM270.33 13V9.8h1.09c.294-.021.586.056.83.22a.75.75 0 0 1 .28.65.71.71 0 0 1-.46.66.7.7 0 0 1 .39.27.73.73 0 0 1 .15.47.85.85 0 0 1-.29.69c-.24.175-.534.26-.83.24zm.55-1.44v1h.62a.65.65 0 0 0 .41-.13.46.46 0 0 0 .14-.36.44.44 0 0 0-.5-.51zm0-.41h.55a.62.62 0 0 0 .4-.12.4.4 0 0 0 .15-.33.42.42 0 0 0-.14-.35.7.7 0 0 0-.42-.1h-.54zm4.12 1.11h-1.23l-.26.74h-.58l1.21-3.2h.5l1.16 3.2h-.58zm-1.08-.45h.93l-.47-1.33zM278.7 13h-.56l-1.42-2.27V13h-.56V9.8h.56l1.43 2.28V9.8h.55zm1.57-1.38-.36.38v1h-.55V9.8h.55v1.5l.31-.38.94-1.12h.67l-1.19 1.42L281.9 13h-.66zm2.51 1.38h-.55V9.8h.55zm3.22 0h-.55L284 10.73V13h-.56V9.8h.56l1.43 2.28V9.8h.57zm3.11-.42a1 1 0 0 1-.48.35 1.9 1.9 0 0 1-.7.11 1.4 1.4 0 0 1-.71-.18 1.15 1.15 0 0 1-.48-.52 1.8 1.8 0 0 1-.17-.79v-.25a1.63 1.63 0 0 1 .35-1.13 1.18 1.18 0 0 1 1-.41c.306-.02.608.072.85.26.22.195.356.467.38.76h-.54a.64.64 0 0 0-.219-.432.63.63 0 0 0-.461-.148.65.65 0 0 0-.56.27 1.4 1.4 0 0 0-.21.79v.25a1.33 1.33 0 0 0 .22.8.74.74 0 0 0 .61.29.8.8 0 0 0 .61-.19v-.63h-.66v-.42h1.21z"/><path fill="#000" d="M263.83 4a1 1 0 0 1 .95 1v1A2.46 2.46 0 0 1 267 8.48v2.6a2.43 2.43 0 0 1-.709 1.711 2.4 2.4 0 0 1-1.711.709 2.42 2.42 0 0 1-2.42-2.42v-2.6a2.46 2.46 0 0 1 2.2-2.48V5a.45.45 0 0 0 0-.2.46.46 0 0 0-.28-.29.5.5 0 0 0-.21 0 .535.535 0 0 0-.496.341.5.5 0 0 0-.034.209v.22a1 1 0 0 1-.95 1 1 1 0 0 1-.94-1 .2.2 0 0 1 0-.11.2.2 0 0 1 .08-.08.2.2 0 0 1 .1 0 .2.2 0 0 1 .11 0q.047.032.074.083.026.05.026.107a.53.53 0 1 0 1.05 0V5a1 1 0 0 1 .94-1m.74 3a.2.2 0 0 0-.12 0 .4.4 0 0 0-.11.07.6.6 0 0 0-.07.1.6.6 0 0 0 0 .13v1.18a.3.3 0 0 0 .021.126.33.33 0 0 0 .174.179q.06.025.125.025h.12l.1-.07a.3.3 0 0 0 .07-.11q.015-.06 0-.12V7.4a.3.3 0 0 0 0-.13.3.3 0 0 0-.07-.1l-.1-.07a.3.3 0 0 0-.12 0z"/><path fill="#fff" stroke="#E0E0E0" stroke-width=".67" d="M251.67.67h-30a1 1 0 0 0-1 1v14.66a1 1 0 0 0 1 1h30a1 1 0 0 0 1-1V1.67a1 1 0 0 0-1-1Z"/><path fill="#2A2C83" fill-rule="evenodd" d="M225.34 10.64s.14-.62.52-2c.3-1.07.59-2.07.63-2.22l.09-.28h1.19c1.39 0 1.6 0 1.83.15.39.2.5.51.37 1-.11.44-.386.82-.77 1.06-.08.06-.16.13-.16.15s0 .1.13.18q.109.09.18.21c.07.252.07.518 0 .77q-.073.316-.1.64v.27h-.58a2.5 2.5 0 0 1-.61 0c-.06-.06-.05-.2 0-.61s.11-.62 0-.73-.22-.18-.64-.19-.39 0-.44 0-.15.25-.34.94l-.16.58H226a5 5 0 0 1-.61 0zm3-2.52c.28-.08.39-.25.39-.59a.43.43 0 0 0 0-.22c-.08-.09-.33-.13-.8-.1h-.41l-.06.2a3 3 0 0 0-.15.66c0 .05 0 .07.12.09q.503.034 1-.06zm1.93 2.61a.66.66 0 0 1-.38-.33c-.12-.26 0-.85.41-2.27.1-.34.18-.62.18-.63h.49a2.5 2.5 0 0 1 .5 0h.08l-.08.26c-.18.64-.37 1.41-.4 1.66s0 .28 0 .35.38.2.63.07.34-.27.82-1.89c.026-.15.084-.293.17-.42l.09-.09h.95c.01 0-.58 2.22-.83 3.07v.14h-1a.7.7 0 0 1 .05-.15c.1-.28 0-.3-.4 0a1.34 1.34 0 0 1-.83.31c-.145.03-.295.03-.44 0zm3.35-.09q.216-1.134.58-2.23l.63-2.21h1c1.31 0 1.58 0 1.83.16a.8.8 0 0 1 .41.36 1.35 1.35 0 0 1 0 1.1 2 2 0 0 1-1.33 1.34 6 6 0 0 1-.69.07c-.93.06-.87 0-.92.17s-.12.37-.21.68l-.16.57h-.58q-.3.016-.6 0zm2.71-2.38a.66.66 0 0 0 .57-.33.63.63 0 0 0 .06-.55c-.09-.14-.22-.17-.71-.17a3 3 0 0 0-.48 0 7 7 0 0 0-.24.94.2.2 0 0 0 0 .09q.39.045.78 0zm1.71 2.48c-.35-.15-.44-.39-.33-.87.17-.68.52-.9 1.74-1.1.74-.13.92-.22 1-.48S240.33 8 240 8a.6.6 0 0 0-.49.19l-.15.12H239c-.45 0-.59 0-.59-.07.073-.185.19-.35.34-.48.193-.165.422-.282.67-.34a3.5 3.5 0 0 1 1.78 0c.164.072.3.195.39.35.07.13.05.26-.28 1.51-.15.62-.28 1.17-.28 1.24v.11h-1.02l-.06-.14c-.08-.17-.08-.17-.46 0a2.1 2.1 0 0 1-.88.24.9.9 0 0 1-.49-.06zm1.62-.69a1 1 0 0 0 .45-.7v-.12h-.19c-.289.043-.569.13-.83.26a.6.6 0 0 0-.16.15.55.55 0 0 0-.06.22c0 .14 0 .18.12.22.22.054.45.054.67 0zm1.66 2c-.12 0-.12-.08 0-.4s.1-.43.38-.47.43-.11.5-.24a9 9 0 0 0 0-2.25 9 9 0 0 1 0-1.27h1.1v1a8 8 0 0 0 0 1c.06.05.26-.28 1.09-1.8l.11-.22h.5q.24-.018.48 0s-.7 1.29-1.42 2.5c-1 1.73-1.21 2-1.69 2.1a4.7 4.7 0 0 1-1 .05z" clip-rule="evenodd" opacity=".94"/><path fill="#097A44" fill-rule="evenodd" d="m245.79 11.67 1.4-5.08 1.34 2.63z" clip-rule="evenodd"/><path fill="#F46F20" fill-rule="evenodd" d="m244.91 11.69 1.41-5.08 1.34 2.63z" clip-rule="evenodd"/><path fill="#fff" d="M214.43 1h-28.86a1.25 1.25 0 0 0-1.24 1.24v13.52a1.25 1.25 0 0 0 1.24 1.24h28.86a1.25 1.25 0 0 0 1.24-1.24V2.24A1.25 1.25 0 0 0 214.43 1"/><path fill="#F58220" d="M195.45 17h19a1.23 1.23 0 0 0 1.24-1.23V10s-7.14 4.84-20.22 7z"/><path fill="#1A1919" fill-rule="evenodd" d="M189.06 8.44a1.4 1.4 0 0 1-1 .3h-.2V6.31h.2a1.36 1.36 0 0 1 1 .3 1.21 1.21 0 0 1 .304 1.414c-.07.159-.174.3-.304.416m-.86-2.75h-1.09v3.67h1.08a2.05 2.05 0 0 0 1.36-.43 1.8 1.8 0 0 0 .68-1.41 1.84 1.84 0 0 0-.601-1.351 1.85 1.85 0 0 0-1.399-.479zm2.38 0h.73v3.67h-.73zm2.54 1.4c-.44-.15-.57-.26-.57-.46s.23-.4.55-.4a.78.78 0 0 1 .6.29l.38-.49a1.67 1.67 0 0 0-1.11-.4 1.1 1.1 0 0 0-1.18 1c0 .5.23.76.93 1q.264.083.51.21a.5.5 0 0 1 .16.16.46.46 0 0 1 .013.43.53.53 0 0 1-.523.31.88.88 0 0 1-.81-.49l-.48.45a1.5 1.5 0 0 0 1.32.7 1.21 1.21 0 0 0 1.31-1.21c0-.58-.26-.85-1.1-1.15zm1.33.43a1.93 1.93 0 0 0 1.242 1.795c.242.092.499.134.758.125.323.003.642-.073.93-.22v-.84a1.2 1.2 0 0 1-.9.4 1.22 1.22 0 0 1-1.27-1.26 1.235 1.235 0 0 1 1.24-1.26 1.27 1.27 0 0 1 .93.41v-.84a1.94 1.94 0 0 0-.91-.22 2 2 0 0 0-2.02 1.91m8.92.63-1-2.46h-.81l1.61 3.76h.4l1.64-3.76h-.8l-1 2.46zm2.16 1.21h2.1v-.62h-1.36v-1h1.31v-.62h-1.31v-.81h1.36v-.62h-2.1zm3.54-2h-.21V6.27h.23c.46 0 .71.18.71.54s-.25.57-.73.57zm1.49-.61c0-.69-.49-1.08-1.34-1.08h-1.1v3.69h.74V7.88h.1l1 1.48h.91l-1.17-1.55a1 1 0 0 0 .86-1z" clip-rule="evenodd"/><path fill="#F58220" fill-rule="evenodd" d="M201.66 7.53a2 2 0 1 1-4.001-.001 2 2 0 0 1 4.001 0" clip-rule="evenodd"/><path fill="#fff" stroke="#E0E0E0" stroke-width=".67" d="M178.33.67h-30a1 1 0 0 0-1 1v14.66a1 1 0 0 0 1 1h30a1 1 0 0 0 1-1V1.67a1 1 0 0 0-1-1Z"/><path fill="#184977" fill-rule="evenodd" d="M160.3 4h6.11a5 5 0 0 1 5 5 5 5 0 0 1-5.01 5h-6.1z" clip-rule="evenodd"/><path fill="#fff" stroke="#184977" d="M160.3 13.5a4.497 4.497 0 0 0 4.357-5.408A4.499 4.499 0 0 0 155.75 9a4.5 4.5 0 0 0 1.342 3.194A4.5 4.5 0 0 0 160.3 13.5Z"/><path fill="#184977" fill-rule="evenodd" d="M162.32 9a2.44 2.44 0 0 0-.41-1.36 2.4 2.4 0 0 0-1.1-.89v4.5a2.4 2.4 0 0 0 1.1-.89c.269-.403.411-.876.41-1.36m-2.52 2.25v-4.5A2.42 2.42 0 0 0 158.271 9a2.425 2.425 0 0 0 1.529 2.25" clip-rule="evenodd"/><path fill="#fff" stroke="#E0E0E0" stroke-width=".67" d="M141.67.67h-30a1 1 0 0 0-1 1v14.66a1 1 0 0 0 1 1h30a1 1 0 0 0 1-1V1.67a1 1 0 0 0-1-1Z"/><path fill="#0079C1" d="m128.79 11.69-.28-.34v.34h-.92v-.59a.85.85 0 0 1-.38.09h-.33v.5h-1.38l-.25-.33-.25.33h-2.29V9.51H125l.25.32.25-.32h8.4V2H120v5.87l.52-1.23h.9l.3.68v-.68h1.12l.18.5.17-.5h5v.25a1.1 1.1 0 0 1 .72-.25h1.6l.3.68v-.68h.95L132 7v-.36h1v2.18h-1l-.25-.39v.39h-1.38l-.14-.33h-.37l-.14.33h-.85a1 1 0 0 1-.69-.23v.23h-1.41l-.28-.34v.34h-5.24l-.13-.33h-.38l-.14.33h-.6v7.09h13.91v-4.38a.85.85 0 0 1-.53.16z"/><path fill="#0079C1" d="m133.92 9.78-.16.37-.78-.16a.13.13 0 0 0-.1 0 .15.15 0 0 0 0 .09.14.14 0 0 0 .14.14h.38c.33 0 .52.17.52.47a.5.5 0 0 1 0 .21.5.5 0 0 1-.13.18.54.54 0 0 1-.4.14h-.85v-.37h.92a.07.07 0 0 0 0-.05.1.1 0 0 0 0-.06h-.5a.5.5 0 0 1-.2 0 .4.4 0 0 1-.17-.1.4.4 0 0 1-.11-.17.4.4 0 0 1 0-.19q0-.111.05-.21a.6.6 0 0 1 .12-.18.5.5 0 0 1 .19-.11.5.5 0 0 1 .21 0z"/><path fill="#fff" stroke="#E0E0E0" stroke-width=".67" d="M105 .67H75a1 1 0 0 0-1 1v14.66a1 1 0 0 0 1 1h30a1 1 0 0 0 1-1V1.67a1 1 0 0 0-1-1Z"/><path fill="#007BDB" d="M86.46 14a4.999 4.999 0 1 0 0-9.998 4.999 4.999 0 0 0 0 9.998"/><path fill="#E42B00" d="M93.54 14a5 5 0 1 0-.12-10 5 5 0 0 0 .12 10"/><path fill="#1740CE" fill-rule="evenodd" d="M90 12.58A5.9 5.9 0 0 0 91.52 9 5.9 5.9 0 0 0 90 5.42 4.75 4.75 0 0 0 88.48 9 4.78 4.78 0 0 0 90 12.58" clip-rule="evenodd"/><path fill="#fff" stroke="#E0E0E0" stroke-width=".67" d="M68.33.67h-30a1 1 0 0 0-1 1v14.66a1 1 0 0 0 1 1h30a1 1 0 0 0 1-1V1.67a1 1 0 0 0-1-1Z"/><path fill="#C00" d="M49.8 14a5 5 0 1 0-.12-9.999 5 5 0 0 0 .12 10"/><path fill="#F90" d="M56.87 14a5 5 0 1 0 0-10 5 5 0 0 0 0 10"/><path fill="#F16D27" fill-rule="evenodd" d="M53.33 12.58A5.9 5.9 0 0 0 54.85 9a5.9 5.9 0 0 0-1.52-3.58A4.76 4.76 0 0 0 51.82 9a4.8 4.8 0 0 0 1.51 3.58" clip-rule="evenodd"/><path fill="#fff" stroke="#E0E0E0" stroke-width=".67" d="M31.67.67h-30a1 1 0 0 0-1 1v14.66a1 1 0 0 0 1 1h30a1 1 0 0 0 1-1V1.67a1 1 0 0 0-1-1Z"/><path fill="#1A1F71" d="m14 5.8-2.75 6.56H9.43L8.08 7.12a.76.76 0 0 0-.41-.58A7.3 7.3 0 0 0 6 6v-.2h2.93a.78.78 0 0 1 .51.2.86.86 0 0 1 .27.48l.71 3.8 1.77-4.48zm7 4.42c0-1.74-2.39-1.83-2.38-2.61 0-.23.23-.48.72-.54a3.14 3.14 0 0 1 1.66.29L21.31 6a4.5 4.5 0 0 0-1.58-.29c-1.67 0-2.86.89-2.87 2.17 0 .94.84 1.47 1.49 1.78s.88.53.88.82c0 .44-.53.63-1 .64a3.5 3.5 0 0 1-1.74-.42l-.31 1.44c.603.232 1.244.35 1.89.35 1.78 0 2.95-.88 2.95-2.24zm4.43 2.13H27L25.63 5.8h-1.45a.73.73 0 0 0-.43.13.72.72 0 0 0-.29.35l-2.55 6.08h1.78l.36-1h2.18zM23.54 10l.89-2.46.51 2.46zM16.4 5.8 15 12.36h-1.7l1.4-6.56z"/></svg>