<svg xmlns="http://www.w3.org/2000/svg" width="25" height="24" fill="none" viewBox="0 0 25 24"><path stroke="#fff" stroke-linecap="round" stroke-linejoin="round" stroke-width="1.5" d="m15.933 12-4.5-3v6z"/><path stroke="#fff" stroke-linecap="round" stroke-linejoin="round" stroke-width="1.5" d="M3.183 12c0 2.79.288 4.426.507 5.267a1.5 1.5 0 0 0 .903 1.022c3.139 1.206 8.34 1.173 8.34 1.173s5.201.033 8.34-1.173a1.49 1.49 0 0 0 .903-1.022c.219-.84.507-2.477.507-5.267s-.288-4.426-.507-5.268a1.49 1.49 0 0 0-.903-1.02c-3.139-1.207-8.34-1.174-8.34-1.174s-5.201-.033-8.34 1.173a1.5 1.5 0 0 0-.903 1.021c-.219.842-.507 2.478-.507 5.268"/></svg>